<?xml version="1.0" encoding="UTF-8" standalone="no"?>
<svg
   xmlns:dc="http://purl.org/dc/elements/1.1/"
   xmlns:cc="http://creativecommons.org/ns#"
   xmlns:rdf="http://www.w3.org/1999/02/22-rdf-syntax-ns#"
   xmlns:svg="http://www.w3.org/2000/svg"
   xmlns="http://www.w3.org/2000/svg"
   xmlns:sodipodi="http://sodipodi.sourceforge.net/DTD/sodipodi-0.dtd"
   xmlns:inkscape="http://www.inkscape.org/namespaces/inkscape"
   viewBox="0 0 48 48"
   id="svg2"
   version="1.1"
   inkscape:version="0.91 r13725"
   sodipodi:docname="fedora.svg">
  <metadata
     id="metadata29">
    <rdf:RDF>
      <cc:Work
         rdf:about="">
        <dc:format>image/svg+xml</dc:format>
        <dc:type
           rdf:resource="http://purl.org/dc/dcmitype/StillImage" />
        <dc:title></dc:title>
      </cc:Work>
    </rdf:RDF>
  </metadata>
  <sodipodi:namedview
     pagecolor="#ffffff"
     bordercolor="#666666"
     borderopacity="1"
     objecttolerance="10"
     gridtolerance="10"
     guidetolerance="10"
     inkscape:pageopacity="0"
     inkscape:pageshadow="2"
     inkscape:window-width="742"
     inkscape:window-height="480"
     id="namedview27"
     showgrid="false"
     inkscape:zoom="4.9166667"
     inkscape:cx="24"
     inkscape:cy="24"
     inkscape:window-x="915"
     inkscape:window-y="36"
     inkscape:window-maximized="0"
     inkscape:current-layer="svg2" />
  <defs
     id="defs4">
    <linearGradient
       y1="545.8"
       x2="0"
       y2="517.8"
       gradientUnits="userSpaceOnUse"
       id="linearGradient6">
      <stop
         stop-color="#3889e9"
         id="stop8" />
      <stop
         offset="1"
         stop-color="#5ea5fb"
         id="stop10" />
    </linearGradient>
    <linearGradient
       id="0"
       gradientUnits="userSpaceOnUse"
       y1="545.14"
       x2="0"
       y2="518.14">
      <stop
         stop-color="#4469b9"
         id="stop13" />
      <stop
         offset="1"
         stop-color="#5d91ff"
         id="stop15" />
    </linearGradient>
  </defs>
  <g
     transform="matrix(2.216367,0,0,2.2157586,-950.84458,-1153.7756)"
     id="g17">
    <g
       id="g21"
       style="fill:#ffffff">
      <path
         d="m 444.24,521.27 c -3.189,0 -5.774,2.585 -5.774,5.774 l 0,3.062 -3.047,0 c -3.189,0 -5.774,2.572 -5.774,5.761 0,3.189 2.585,5.774 5.774,5.774 3.188,0 5.773,-2.585 5.773,-5.774 l 0,-3.075 3.048,0 c 3.188,0 5.773,-2.56 5.773,-5.748 0,-3.189 -2.585,-5.774 -5.773,-5.774 m -5.774,14.6 c -0.002,1.68 -1.366,3.042 -3.047,3.042 -1.683,0 -3.06,-1.364 -3.06,-3.047 0,-1.684 1.377,-3.073 3.06,-3.073 l 2.617,0 c 0.238,0 0.43,0.192 0.43,0.43 l 0,2.647 z m 5.773,-5.766 -2.617,0 c -0.238,0 -0.43,-0.192 -0.43,-0.43 l 0,-2.635 c 0.003,-1.681 1.366,-3.043 3.047,-3.043 1.683,0 3.06,1.364 3.06,3.048 0,1.683 -1.377,3.06 -3.06,3.06"
         id="path23"
         style="opacity:0.2;fill:#666666"
         inkscape:connector-curvature="0" />
      <path
         d="m 438.46,530.12 0,-3.062 c 0,-3.189 2.585,-5.774 5.774,-5.774 0.484,0 0.827,0.055 1.275,0.172 0.653,0.171 1.186,0.706 1.187,1.329 0,0.753 -0.546,1.3 -1.363,1.3 -0.389,0 -0.53,-0.074 -1.099,-0.074 -1.681,0 -3.045,1.362 -3.047,3.043 l 0,2.635 c 0,0.238 0.192,0.43 0.43,0.43 l 2,0 c 0.746,0 1.348,0.597 1.349,1.345 0,0.748 -0.603,1.344 -1.349,1.344 l -2.433,0 0,3.075 c 0,3.188 -2.585,5.773 -5.773,5.773 -0.484,0 -0.828,-0.055 -1.275,-0.172 -0.653,-0.171 -1.186,-0.706 -1.187,-1.329 0,-0.753 0.546,-1.3 1.363,-1.3 0.389,0 0.53,0.075 1.099,0.075 1.681,0 3.045,-1.362 3.048,-3.042 l 0,-2.648 c 0,-0.237 -0.193,-0.43 -0.43,-0.43 l -2,0 c -0.746,0 -1.349,-0.595 -1.349,-1.343 0,-0.752 0.609,-1.345 1.363,-1.345 l 2.418,0"
         id="path25"
         style="fill:#000000;fill-opacity:0.85"
         inkscape:connector-curvature="0" />
    </g>
  </g>
</svg>
