<?xml version="1.0" encoding="UTF-8" standalone="no"?>
<svg
   xmlns:dc="http://purl.org/dc/elements/1.1/"
   xmlns:cc="http://creativecommons.org/ns#"
   xmlns:rdf="http://www.w3.org/1999/02/22-rdf-syntax-ns#"
   xmlns:svg="http://www.w3.org/2000/svg"
   xmlns="http://www.w3.org/2000/svg"
   xmlns:sodipodi="http://sodipodi.sourceforge.net/DTD/sodipodi-0.dtd"
   xmlns:inkscape="http://www.inkscape.org/namespaces/inkscape"
   viewBox="0 0 48 48"
   id="svg3614"
   version="1.1"
   inkscape:version="0.91 r13725"
   sodipodi:docname="freebsd.svg">
  <metadata
     id="metadata3643">
    <rdf:RDF>
      <cc:Work
         rdf:about="">
        <dc:format>image/svg+xml</dc:format>
        <dc:type
           rdf:resource="http://purl.org/dc/dcmitype/StillImage" />
        <dc:title></dc:title>
      </cc:Work>
    </rdf:RDF>
  </metadata>
  <sodipodi:namedview
     pagecolor="#ffffff"
     bordercolor="#666666"
     borderopacity="1"
     objecttolerance="10"
     gridtolerance="10"
     guidetolerance="10"
     inkscape:pageopacity="0"
     inkscape:pageshadow="2"
     inkscape:window-width="1920"
     inkscape:window-height="1051"
     id="namedview3641"
     showgrid="false"
     inkscape:zoom="4.9166667"
     inkscape:cx="24"
     inkscape:cy="24"
     inkscape:window-x="0"
     inkscape:window-y="1"
     inkscape:window-maximized="1"
     inkscape:current-layer="g3629" />
  <defs
     id="defs3616">
    <linearGradient
       y1="545.8"
       x2="0"
       y2="517.8"
       gradientUnits="userSpaceOnUse"
       id="linearGradient3618">
      <stop
         stop-color="#3889e9"
         id="stop3620" />
      <stop
         offset="1"
         stop-color="#5ea5fb"
         id="stop3622" />
    </linearGradient>
    <linearGradient
       id="0"
       gradientUnits="userSpaceOnUse"
       y1="545.14"
       x2="0"
       y2="518.14">
      <stop
         stop-color="#ff5a4e"
         id="stop3625" />
      <stop
         offset="1"
         stop-color="#ff8077"
         id="stop3627" />
    </linearGradient>
  </defs>
  <g
     transform="translate(-384.57-499.8)"
     id="g3629">
    <g
       transform="matrix(0.30293263,0,0,0.30479346,141.14965,333.12408)"
       id="g3633"
       style="fill:#ffffff;fill-opacity:0.85">
      <g
         id="g3645"
         transform="translate(78.486211,-51.955661)">
        <path
           style="fill:#000000"
           id="path3635"
           d="m 878.6,605.07 c 8.07,8.06 -14.297,43.508 -18.08,47.29 -3.78,3.774 -13.383,0.302 -21.448,-7.764 -8.07,-8.06 -11.541,-17.669 -7.761,-21.448 3.781,-3.783 39.22,-26.14 47.29,-18.08"
           inkscape:connector-curvature="0" />
        <path
           style="fill:#000000"
           id="path3637"
           d="m 765.47,613.6 c -12.314,-6.987 -29.839,-14.761 -35.414,-9.187 -5.648,5.647 2.41,23.566 9.47,35.904 6.283,-10.924 15.225,-20.12 25.944,-26.717"
           inkscape:connector-curvature="0" />
        <path
           style="fill:#000000"
           id="path3639"
           d="m 866.29,649.58 c 1.135,3.848 0.928,7.02 -0.908,8.86 -4.299,4.298 -15.901,-0.276 -26.362,-10.233 -0.729,-0.653 -1.454,-1.333 -2.167,-2.046 -3.78,-3.784 -6.725,-7.813 -8.607,-11.522 -3.663,-6.572 -4.58,-12.377 -1.81,-15.15 1.508,-1.508 3.923,-1.919 6.868,-1.389 1.92,-1.214 4.186,-2.568 6.674,-3.953 -10.111,-5.273 -21.603,-8.252 -33.799,-8.252 -40.441,0 -73.23,32.781 -73.23,73.23 0,40.44 32.786,73.23 73.23,73.23 40.442,0 73.23,-32.784 73.23,-73.23 0,-13.06 -3.427,-25.308 -9.416,-35.926 -1.295,2.362 -2.553,4.526 -3.702,6.381"
           inkscape:connector-curvature="0" />
      </g>
    </g>
  </g>
</svg>
