<?xml version="1.0" encoding="UTF-8" standalone="no"?>
<svg
   xmlns:dc="http://purl.org/dc/elements/1.1/"
   xmlns:cc="http://creativecommons.org/ns#"
   xmlns:rdf="http://www.w3.org/1999/02/22-rdf-syntax-ns#"
   xmlns:svg="http://www.w3.org/2000/svg"
   xmlns="http://www.w3.org/2000/svg"
   xmlns:sodipodi="http://sodipodi.sourceforge.net/DTD/sodipodi-0.dtd"
   xmlns:inkscape="http://www.inkscape.org/namespaces/inkscape"
   viewBox="0 0 48 48"
   id="svg2"
   version="1.1"
   inkscape:version="0.91 r13725"
   sodipodi:docname="opensuse.svg">
  <metadata
     id="metadata29">
    <rdf:RDF>
      <cc:Work
         rdf:about="">
        <dc:format>image/svg+xml</dc:format>
        <dc:type
           rdf:resource="http://purl.org/dc/dcmitype/StillImage" />
        <dc:title></dc:title>
      </cc:Work>
    </rdf:RDF>
  </metadata>
  <sodipodi:namedview
     pagecolor="#ffffff"
     bordercolor="#666666"
     borderopacity="1"
     objecttolerance="10"
     gridtolerance="10"
     guidetolerance="10"
     inkscape:pageopacity="0"
     inkscape:pageshadow="2"
     inkscape:window-width="1920"
     inkscape:window-height="1051"
     id="namedview27"
     showgrid="false"
     inkscape:zoom="4.9166667"
     inkscape:cx="24.40678"
     inkscape:cy="24"
     inkscape:window-x="0"
     inkscape:window-y="1"
     inkscape:window-maximized="1"
     inkscape:current-layer="svg2" />
  <defs
     id="defs4">
    <linearGradient
       y1="545.8"
       x2="0"
       y2="517.8"
       gradientUnits="userSpaceOnUse"
       id="linearGradient6">
      <stop
         stop-color="#3889e9"
         id="stop8" />
      <stop
         offset="1"
         stop-color="#5ea5fb"
         id="stop10" />
    </linearGradient>
    <linearGradient
       id="0"
       gradientUnits="userSpaceOnUse"
       y1="545.14"
       x2="0"
       y2="518.14">
      <stop
         stop-color="#4da70e"
         id="stop13" />
      <stop
         offset="1"
         stop-color="#9ded46"
         id="stop15" />
    </linearGradient>
    <linearGradient
       x1="25.425"
       y1="1043.02"
       x2="23.12"
       y2="1015.56"
       gradientUnits="userSpaceOnUse"
       id="linearGradient17">
      <stop
         stop-color="#dfe2e3"
         id="stop19" />
      <stop
         offset="1"
         stop-color="#fdfdfe"
         id="stop21" />
    </linearGradient>
  </defs>
  <path
     d="m 28.80429,46.460417 c -5.732812,-2.017124 -8.344127,-8.407325 -5.70596,-13.968471 1.196238,-2.523207 2.77511,-3.914575 5.354205,-4.722001 3.364503,-1.05398 7.055253,0.400829 8.992594,3.545466 1.326467,2.152655 1.478179,5.610169 0.347728,7.883938 -2.655622,5.339105 -9.937769,5.2252 -11.861685,-0.185996 -1.117026,-3.140312 0.175877,-6.414712 2.987238,-7.568178 2.851638,-1.169326 5.845588,0.703615 6.177205,3.86411 0.139631,1.330812 0.02551,1.756153 -0.730363,2.720738 -1.632576,2.083448 -4.309677,1.842661 -5.292446,-0.475804 -0.522263,-1.231326 -0.131576,-1.464903 0.937121,-0.562316 1.130451,0.954493 1.965535,0.96747 2.82747,0.04181 0.886102,-0.95161 0.848511,-1.904661 -0.124863,-3.120125 -1.811139,-2.260794 -5.317956,-0.4239 -5.383742,2.820223 -0.03759,1.832569 0.785409,3.248448 2.368309,4.07606 4.012968,2.096425 8.446165,-2.632786 6.81493,-7.266835 -0.449762,-1.277463 -1.860814,-2.898083 -3.161772,-3.624766 -2.630113,-1.474995 -6.659192,-0.112469 -8.498524,2.873571 -0.766613,1.245745 -0.916982,1.877267 -0.916982,3.88718 0,2.041635 0.151711,2.663065 1.016331,4.165454 0.631013,1.095793 1.640632,2.18005 2.662335,2.857712 1.435217,0.95161 1.950767,1.090024 4.022367,1.078491 4.905782,-0.02883 8.271628,-3.409935 9.286617,-9.328656 0.719623,-4.192848 -0.704854,-8.95522 -3.573945,-11.949906 -1.023045,-1.068397 -1.487576,-1.852754 -1.487576,-2.511671 0,-1.100118 -0.543746,-2.353071 -1.020361,-2.353071 -0.18259,0 -0.323562,1.340904 -0.323562,3.075429 l 0,3.075427 1.511745,0.980447 c 1.658084,1.075606 2.043404,2.249259 0.739761,2.249259 -0.425598,0 -0.941148,-0.180229 -1.146563,-0.400831 -0.205415,-0.2206 -1.331838,-0.75552 -2.502567,-1.18807 -2.17632,-0.804541 -2.827471,-1.73164 -1.373459,-1.953682 0.649809,-0.09949 0.755872,-0.333062 0.755872,-1.669642 l 0,-1.554295 -1.878268,-0.167252 c -2.115904,-0.188881 -2.475715,-0.556547 -2.483771,-2.537625 -0.0041,-0.743985 -0.138288,-1.352439 -0.299394,-1.352439 -0.753187,0 -1.182813,1.349555 -1.319755,4.145268 -0.143657,2.941338 -0.128891,3.011988 0.645779,3.130218 1.529199,0.233577 1.149249,1.307741 -0.790778,2.22763 -0.993509,0.471479 -2.364282,1.38416 -3.047654,2.028659 -1.243228,1.17221 -2.248819,1.271695 -2.248819,0.222042 0,-0.294134 0.680686,-1.144814 1.511743,-1.891684 1.490263,-1.33802 1.511744,-1.388485 1.511744,-3.57286 0,-2.756784 -0.851195,-4.282243 -3.104042,-5.565473 l -1.577531,-0.898262 -1.459383,1.538436 -1.459383,1.538435 -6.6994695,-0.09805 C 3.1422324,19.900406 3.103298,19.89608 2.9958909,19.08866 l -0.1074114,-0.811751 5.1890672,0 c 4.2036153,0 5.2696223,-0.102377 5.6079523,-0.540688 0.369209,-0.477245 -0.29134,-0.540687 -5.6294332,-0.540687 -4.4345378,0 -6.140956,-0.121119 -6.3960458,-0.451293 C 1.2773848,16.249693 1.6398831,13.443887 2.3151985,11.664666 3.3973164,8.9280682 5.2057706,6.3471884 7.3713503,4.4266679 9.210684,2.7945137 14.560861,0.91292256 15.851079,1.4449586 c 0.414857,0.1715782 0.522263,0.8434719 0.522263,3.2931451 0,1.692711 0.120836,3.0783119 0.268516,3.0783119 0.659207,0 1.075405,-0.9991899 1.075405,-2.5837635 0,-1.7128967 0.0054,-1.7186641 1.428506,-2.1468882 2.215255,-0.6646847 7.411034,-0.4830139 10.42781,0.3647835 8.299822,2.3328847 14.360224,8.5702506 16.403628,16.8809726 0.927723,3.774717 1.005592,9.876551 0.163795,12.921701 -1.541281,5.575564 -4.88296,10.01785 -9.151017,12.163297 -1.784287,0.89682 -2.785852,1.154907 -4.79972,1.239976 -1.400311,0.05911 -2.924137,-0.02595 -3.387327,-0.188881 M 18.406006,24.638273 c -0.291339,-0.821845 -0.527633,-0.921331 -2.43678,-1.017933 -1.901091,-0.09661 -2.125302,-0.190323 -2.221968,-0.919889 -0.102041,-0.772822 0,-0.811753 2.169607,-0.811753 2.16021,0 2.340116,-0.06632 3.51353,-1.297649 1.070035,-1.121745 1.333181,-1.241416 1.945396,-0.88961 0.968,0.556547 0.894159,1.045328 -0.367865,2.442464 -0.659208,0.731009 -1.08212,1.574481 -1.091518,2.175724 -0.02014,1.333695 -1.074064,1.554297 -1.511744,0.317204"
     id="path25"
     inkscape:connector-curvature="0"
     style="fill:#000000;fill-opacity:0.847;stroke-width:1.31700003" />
</svg>
