<?xml version="1.0" encoding="UTF-8" standalone="no"?>
<svg
   xmlns:dc="http://purl.org/dc/elements/1.1/"
   xmlns:cc="http://creativecommons.org/ns#"
   xmlns:rdf="http://www.w3.org/1999/02/22-rdf-syntax-ns#"
   xmlns:svg="http://www.w3.org/2000/svg"
   xmlns="http://www.w3.org/2000/svg"
   xmlns:sodipodi="http://sodipodi.sourceforge.net/DTD/sodipodi-0.dtd"
   xmlns:inkscape="http://www.inkscape.org/namespaces/inkscape"
   viewBox="0 0 48 48"
   id="svg2"
   version="1.1"
   inkscape:version="0.91 r13725"
   sodipodi:docname="ubuntu.svg">
  <metadata
     id="metadata25">
    <rdf:RDF>
      <cc:Work
         rdf:about="">
        <dc:format>image/svg+xml</dc:format>
        <dc:type
           rdf:resource="http://purl.org/dc/dcmitype/StillImage" />
        <dc:title></dc:title>
      </cc:Work>
    </rdf:RDF>
  </metadata>
  <sodipodi:namedview
     pagecolor="#ffffff"
     bordercolor="#666666"
     borderopacity="1"
     objecttolerance="10"
     gridtolerance="10"
     guidetolerance="10"
     inkscape:pageopacity="0"
     inkscape:pageshadow="2"
     inkscape:window-width="1920"
     inkscape:window-height="1051"
     id="namedview23"
     showgrid="false"
     inkscape:zoom="4.9166667"
     inkscape:cx="59.59322"
     inkscape:cy="24"
     inkscape:window-x="0"
     inkscape:window-y="1"
     inkscape:window-maximized="1"
     inkscape:current-layer="g17" />
  <defs
     id="defs4">
    <linearGradient
       y1="545.8"
       x2="0"
       y2="517.8"
       gradientUnits="userSpaceOnUse"
       id="linearGradient6">
      <stop
         stop-color="#3889e9"
         id="stop8" />
      <stop
         offset="1"
         stop-color="#5ea5fb"
         id="stop10" />
    </linearGradient>
    <linearGradient
       id="0"
       gradientUnits="userSpaceOnUse"
       y1="545.14"
       x2="0"
       y2="518.14">
      <stop
         stop-color="#ff6835"
         id="stop13" />
      <stop
         offset="1"
         stop-color="#ff956f"
         id="stop15" />
    </linearGradient>
  </defs>
  <g
     transform="matrix(1.03209 0 0 1.03209-671.3-802.6)"
     fill="#e9afaf"
     id="g17">
    <path
       d="m 688.45324,778.212 c -0.21217,-0.001 -0.42026,-0.0105 -0.62698,0.002 -1.37366,0.0936 -2.64122,0.83042 -3.38108,2.07207 -1.17916,1.98376 -0.4733,4.50531 1.57765,5.65206 2.04687,1.1428 4.65273,0.47847 5.83189,-1.51188 1.18324,-1.97847 0.50594,-4.54615 -1.5423,-5.69027 -0.57666,-0.32161 -1.2254,-0.48638 -1.86055,-0.52461 m -11.23534,4.39721 c -2.95947,0 -5.72716,0.67752 -8.2147,1.87172 l 2.97443,5.2039 c 1.60213,-0.72497 3.3566,-1.15203 5.23618,-1.15203 6.54183,0 11.93987,4.85064 12.50292,11.05367 l 6.07261,-0.0738 c -0.30328,-4.5712 -2.36648,-8.6837 -5.53403,-11.70217 -1.6307,0.59315 -3.48309,0.5022 -5.10834,-0.41257 -1.62526,-0.91082 -2.65209,-2.43323 -2.93498,-4.1046 -1.58446,-0.42178 -3.27771,-0.68409 -4.99954,-0.68409 m -10.30779,3.04087 c -3.74965,2.42665 -6.51191,6.15031 -7.67204,10.49743 1.35733,1.06898 2.17472,2.66918 2.17472,4.50003 0,1.81899 -0.81467,3.47717 -2.17472,4.55275 1.16013,4.34581 3.92239,8.05364 7.67204,10.47897 l 3.13762,-5.11294 c -3.21787,-2.19202 -5.31234,-5.81683 -5.31234,-9.9201 0,-4.10723 2.09447,-7.72808 5.31234,-9.92009 z m -11.50056,10.85728 c -2.36921,0 -4.27192,1.84403 -4.27192,4.14018 0,2.28823 1.90271,4.14018 4.27192,4.14018 2.37056,0 4.29366,-1.85326 4.29366,-4.14018 0,-2.29615 -1.9231,-4.14018 -4.29366,-4.14018 m 34.31399,5.23948 c -0.56306,6.19248 -5.96245,11.05366 -12.50291,11.05366 -1.88095,0 -3.63405,-0.40993 -5.23618,-1.13488 l -2.97443,5.16566 c 2.48209,1.19817 5.25115,1.85327 8.21469,1.85327 1.72182,0 3.41372,-0.22277 4.99953,-0.64852 0.28153,-1.67003 1.307,-3.18718 2.93498,-4.10195 1.62934,-0.91081 3.47764,-0.99913 5.10834,-0.39807 3.16755,-3.02374 5.23075,-7.12702 5.53403,-11.70217 z m -1.87686,13.08751 c -0.62019,0.0514 -1.24581,0.25045 -1.82111,0.5747 -2.05094,1.13885 -2.75681,3.65511 -1.57765,5.63491 1.18324,1.99035 3.81902,2.66258 5.8686,1.51452 2.04959,-1.14545 2.7201,-3.67095 1.5423,-5.6547 -0.73987,-1.24166 -2.02783,-1.97585 -3.40013,-2.06943 -0.20536,-0.0172 -0.40529,-0.0172 -0.61066,0"
       id="path21"
       style="fill:#000000;fill-opacity:0.85"
       inkscape:connector-curvature="0" />
  </g>
</svg>
