<?xml version="1.0" encoding="UTF-8" standalone="no"?>
<!-- Created with Inkscape (http://www.inkscape.org/) -->

<svg
   xmlns:dc="http://purl.org/dc/elements/1.1/"
   xmlns:cc="http://creativecommons.org/ns#"
   xmlns:rdf="http://www.w3.org/1999/02/22-rdf-syntax-ns#"
   xmlns:svg="http://www.w3.org/2000/svg"
   xmlns="http://www.w3.org/2000/svg"
   xmlns:sodipodi="http://sodipodi.sourceforge.net/DTD/sodipodi-0.dtd"
   xmlns:inkscape="http://www.inkscape.org/namespaces/inkscape"
   id="svg2"
   height="48"
   width="48"
   version="1.1"
   viewBox="0 0 371.96112 347.47933"
   inkscape:version="0.91 r13725"
   sodipodi:docname="zfs.svg">
  <defs
     id="defs12" />
  <sodipodi:namedview
     pagecolor="#ffffff"
     bordercolor="#666666"
     borderopacity="1"
     objecttolerance="10"
     gridtolerance="10"
     guidetolerance="10"
     inkscape:pageopacity="0"
     inkscape:pageshadow="2"
     inkscape:window-width="1226"
     inkscape:window-height="794"
     id="namedview10"
     showgrid="false"
     inkscape:zoom="7.6840114"
     inkscape:cx="27.911224"
     inkscape:cy="28.833038"
     inkscape:window-x="0"
     inkscape:window-y="1"
     inkscape:window-maximized="0"
     inkscape:current-layer="layer1" />
  <metadata
     id="metadata7">
    <rdf:RDF>
      <cc:Work
         rdf:about="">
        <dc:format>image/svg+xml</dc:format>
        <dc:type
           rdf:resource="http://purl.org/dc/dcmitype/StillImage" />
        <dc:title></dc:title>
      </cc:Work>
    </rdf:RDF>
  </metadata>
  <g
     id="layer1"
     transform="translate(556.3421,-244.3165)">
    <path
       id="path4164"
       d="m -264.0921,296.7231 c -3.53128,3.58789 -9.26465,3.57738 -12.80218,0 -3.54169,-3.56267 -3.54169,-9.36803 0,-12.93069 3.53128,-3.58369 9.27507,-3.58369 12.80635,0 3.55002,3.57317 3.55002,9.36592 -0.003,12.93069 m -1.98543,255.12275 c -6.17921,6.24045 -16.20221,6.24045 -22.38975,0 -6.1813,-6.23624 -6.1813,-16.35253 0,-22.59718 6.18338,-6.23835 16.21054,-6.23835 22.38975,0 6.18963,6.24465 6.1813,16.35253 0,22.59718 m -52.90248,-30.77975 c -6.17922,-6.24466 -6.17922,-16.36095 0,-22.6035 6.18129,-6.23624 16.21262,-6.23624 22.396,0 6.19171,6.24255 6.18755,16.35884 0.003,22.6035 -6.18754,6.23203 -16.21887,6.23203 -22.40017,0 m -8.11464,30.77975 c -6.1813,6.23625 -16.21471,6.23625 -22.39184,0 -6.1938,-6.24465 -6.1938,-16.35253 0,-22.59088 6.17713,-6.24465 16.20637,-6.24465 22.39184,0 6.18963,6.23835 6.18546,16.34623 0,22.59088 M -380.0034,521.0661 c -6.1813,-6.24466 -6.1813,-16.36095 0,-22.6035 6.18546,-6.23624 16.21262,-6.23624 22.396,0.003 6.18963,6.23834 6.18963,16.36094 0,22.59928 -6.18338,6.23204 -16.21054,6.23204 -22.396,0 m -8.11673,30.77976 c -6.17713,6.23625 -16.21262,6.23625 -22.39184,-0.007 -6.18963,-6.24886 -6.18546,-16.34623 0,-22.59088 6.17922,-6.23835 16.21471,-6.23835 22.39393,0 6.18546,6.24465 6.19171,16.35253 -0.002,22.59718 m -52.90457,-30.79237 c -6.18338,-6.23204 -6.18338,-16.35253 -0.002,-22.59088 6.19172,-6.24255 16.21471,-6.24255 22.39184,0 6.18755,6.24255 6.18755,16.35884 0,22.60349 -6.17296,6.22574 -16.20012,6.23204 -22.38975,-0.0118 m -8.11465,30.78607 c -6.1813,6.24255 -16.21054,6.24255 -22.38767,0 -6.18963,-6.24886 -6.18963,-16.35674 0,-22.60139 6.17713,-6.23414 16.20637,-6.23414 22.38767,0 6.17713,6.24465 6.17713,16.36304 0,22.60139 m -24.37518,-268.04706 c 3.55002,-3.58368 9.27298,-3.58368 12.82093,0 3.53336,3.56057 3.53336,9.36593 0,12.9349 -3.54795,3.58368 -9.28757,3.58368 -12.81677,0 -3.53753,-3.56687 -3.54378,-9.37223 -0.003,-12.9349 m 19.6689,19.85004 c 3.53128,-3.56897 9.26465,-3.56897 12.81468,0.003 3.53336,3.58368 3.53336,9.36592 0,12.94751 -3.55003,3.57107 -9.2834,3.57107 -12.81885,0 -3.53753,-3.58159 -3.54794,-9.36383 0.003,-12.95172 m 19.6564,19.87107 c 3.53545,-3.58159 9.27716,-3.58159 12.8126,0 3.54586,3.57107 3.53545,9.37013 -0.002,12.937 -3.53336,3.57738 -9.27508,3.57738 -12.80219,0 -3.54794,-3.56687 -3.54794,-9.37013 -0.008,-12.937 m 0.008,-39.72111 c 3.53753,-3.57528 9.26883,-3.58369 12.80219,0.003 3.54794,3.56898 3.53752,9.36383 0,12.9307 -3.53336,3.58368 -9.27508,3.57317 -12.80219,0 -3.54794,-3.56898 -3.54377,-9.37223 0,-12.9349 m 19.64599,59.57535 c 3.54794,-3.56897 9.2834,-3.57738 12.81676,0.003 3.54378,3.57107 3.54378,9.37223 0,12.94961 -3.53336,3.57107 -9.26674,3.57107 -12.81676,0 -3.52711,-3.57738 -3.53336,-9.37854 0,-12.95382 m 0.008,-39.72531 c 3.53961,-3.56477 9.26674,-3.56897 12.80843,0.003 3.53961,3.58368 3.54586,9.36592 0,12.9475 -3.53336,3.57108 -9.26882,3.57108 -12.81676,0 -3.52711,-3.58158 -3.52711,-9.37433 0.008,-12.95171 m 19.65848,-19.85004 c 3.53545,-3.57528 9.26674,-3.58369 12.81468,0 3.53337,3.56266 3.53337,9.36592 0,12.9349 -3.54377,3.58368 -9.27923,3.56476 -12.81468,0 -3.53961,-3.56688 -3.53961,-9.36173 0,-12.9349 m 19.66265,59.57956 c 3.53545,-3.58159 9.27507,-3.57318 12.8126,-0.003 3.54169,3.57948 3.54169,9.37644 0,12.95172 -3.53753,3.56687 -9.27299,3.56687 -12.8126,0 -3.54169,-3.57528 -3.55002,-9.37224 0,-12.94751 m 0,-39.72531 c 3.53961,-3.57318 9.27507,-3.57318 12.81677,0 3.54169,3.57317 3.53336,9.36592 -0.003,12.9475 -3.53752,3.57108 -9.27715,3.57108 -12.81259,0 -3.53753,-3.58158 -3.5417,-9.37433 0,-12.9475 m 19.6564,-19.85425 c 3.55419,-3.58369 9.27715,-3.58369 12.81259,0 3.53961,3.56267 3.53961,9.36803 0.003,12.9349 -3.53961,3.57317 -9.26674,3.58368 -12.81677,0 -3.53544,-3.56687 -3.53336,-9.37223 0,-12.9349 m 6.06255,183.88825 c 6.17713,-6.23834 16.21054,-6.23834 22.39184,0 6.18963,6.24045 6.18963,16.35674 0,22.59719 -6.18547,6.24044 -16.21471,6.23414 -22.39184,0 -6.1938,-6.24045 -6.1938,-16.35464 0,-22.59719 m 6.75422,-91.50273 c -3.53961,3.58789 -9.27507,3.57317 -12.8126,0 -3.53753,-3.57738 -3.53753,-9.37223 -0.003,-12.95382 3.54169,-3.56477 9.27715,-3.56477 12.81676,0.0168 3.53544,3.56477 3.53544,9.36172 0,12.937 m 0,-39.73162 c -3.53961,3.58158 -9.27507,3.58158 -12.81676,0.005 -3.53336,-3.56688 -3.53545,-9.36593 0,-12.937 3.54169,-3.57949 9.27715,-3.57949 12.81259,0 3.53961,3.56687 3.53961,9.37012 0.003,12.93279 m -32.47317,46.65097 c 3.53545,-3.57108 9.27507,-3.57108 12.8126,0 3.54169,3.57317 3.54169,9.37433 -0.002,12.95171 -3.53544,3.56267 -9.27507,3.56267 -12.82301,-0.002 -3.52919,-3.57528 -3.52919,-9.37223 0.0117,-12.94961 m -4.79796,53.80152 c 6.18547,-6.23834 16.21263,-6.23834 22.39601,0.003 6.18129,6.23414 6.18129,16.35044 0,22.58668 -6.18338,6.24045 -16.21054,6.24045 -22.39601,0.003 -6.18129,-6.23624 -6.18546,-16.34623 0,-22.59508 m -8.11672,30.78186 c 6.18754,6.24045 6.18338,16.35674 0,22.59719 -6.17713,6.23414 -16.21679,6.23414 -22.39184,-0.003 -6.1938,-6.24044 -6.18547,-16.35253 0,-22.59298 6.17505,-6.23414 16.21471,-6.23834 22.39184,0 m -6.75006,-144.16714 c 3.5417,-3.58159 9.27299,-3.58159 12.81677,0 3.53336,3.57107 3.53336,9.37012 0,12.93279 -3.54378,3.58158 -9.27507,3.58158 -12.81468,0.005 -3.53128,-3.56898 -3.53961,-9.36593 -0.002,-12.937 m 0,39.72741 c 3.53753,-3.58158 9.27299,-3.58158 12.81676,-0.0118 3.53337,3.57738 3.53337,9.37433 0,12.96222 -3.54377,3.57107 -9.27923,3.57528 -12.81676,-0.0118 -3.53753,-3.57528 -3.52919,-9.37223 0,-12.937 m 58.98587,-19.87316 c 3.54169,-3.56898 9.27298,-3.57738 12.81884,0 3.52711,3.57948 3.52711,9.37643 -0.003,12.95171 -3.54169,3.56687 -9.27299,3.57317 -12.81468,0.002 -3.53753,-3.57738 -3.53753,-9.37433 0,-12.95381 m 0,-39.72532 c 3.54169,-3.56897 9.27299,-3.56476 12.81468,0 3.53128,3.57738 3.53128,9.37013 0,12.95172 -3.54169,3.56687 -9.27299,3.57107 -12.81468,-0.0101 -3.53753,-3.57108 -3.53753,-9.36383 0,-12.9412 m 19.6564,19.87106 c 3.54586,-3.58159 9.29382,-3.58159 12.81468,0 3.53753,3.56687 3.53336,9.37013 0,12.93279 -3.52919,3.58159 -9.26882,3.58159 -12.81468,0 -3.53753,-3.56477 -3.53336,-9.36592 0,-12.93279 m 0.003,-39.72111 c 3.5417,-3.58368 9.28132,-3.58789 12.81052,0 3.53752,3.56267 3.53752,9.35752 0,12.93069 -3.5292,3.58789 -9.26882,3.58789 -12.81052,0 -3.53752,-3.56476 -3.53752,-9.36802 0,-12.93069 m 19.66682,19.85005 c 3.53544,-3.56477 9.28549,-3.56898 12.81676,0 3.53128,3.57737 3.53128,9.37012 0,12.9412 -3.54169,3.57738 -9.28132,3.58158 -12.81676,0 -3.53961,-3.57108 -3.53961,-9.35332 0,-12.9412 m 97.93825,-30.09876 c 0,-14.43563 -11.60009,-26.14724 -25.92312,-26.14724 l -288.51686,0 c -14.31053,0 -25.91895,11.71161 -25.91895,26.14724 l 0,99.8976 38.65238,0 -38.65238,91.28624 0,99.9039 c 0,14.43773 11.60842,26.14934 25.91895,26.14934 l 288.51686,0 c 14.32303,0 25.92312,-11.71161 25.92312,-26.14934 l 0,-99.9039 -38.6503,0 38.6503,-91.28624 0,-99.8976 z"
       inkscape:connector-curvature="0"
       style="fill:#000000" />
  </g>
</svg>
